<?xml version="1.0" encoding="utf-8"?>
<!-- Generator: Adobe Illustrator 21.0.2, SVG Export Plug-In . SVG Version: 6.00 Build 0)  -->
<svg version="1.1" id="Layer_1" xmlns="http://www.w3.org/2000/svg" xmlns:xlink="http://www.w3.org/1999/xlink" x="0px" y="0px"
	 viewBox="0 0 183.4 68" style="enable-background:new 0 0 183.4 68;" xml:space="preserve">
<style type="text/css">
	.st0{fill:#FFAE34;}
	.st1{fill:url(#SVGID_1_);}
	.st2{fill:#FF8B00;}
	.st3{fill:#171717;}
	.st4{enable-background:new    ;}
	.st5{fill:#FFFFFF;}
	.st6{fill:#131313;}
	.st7{fill:#EFEBE3;}
</style>
<path class="st0" d="M28.5,28.2h3.1c5.2,0,10.1,2.1,13.7,5.8c7.5-7.6,7.4-19.8-0.2-27.2c-3.6-3.5-8.5-5.5-13.5-5.5H11.9
	C8.7,1.3,6.1,3.8,6.1,7s2.6,5.8,5.8,5.8h19.7c4.3,0,7.7,3.4,7.7,7.7s-3.4,7.7-7.7,7.7"/>
<path class="st0" d="M31.7,39.8L31.7,39.8c4.3,0,7.7,3.4,7.7,7.7s-3.4,7.7-7.7,7.7l0,0H11.9c-3.2,0-5.8,2.6-5.8,5.8s2.6,5.8,5.8,5.8
	h19.7c10.6,0,19.3-8.6,19.3-19.2c0-5.1-2-9.9-5.5-13.5C41.8,37.7,36.8,39.8,31.7,39.8z"/>
<path class="st2" d="M31.7,28.2h-3.1c3.2,0,5.8,2.5,5.9,5.7c0,3.2-2.5,5.8-5.7,5.8h3c5.2,0,10.1-2.1,13.7-5.8
	C41.8,30.3,36.8,28.2,31.7,28.2z"/>
<path class="st0" d="M21.3,28.2h7.3c3.2,0,5.7,2.6,5.7,5.7V34c0,3.2-2.6,5.7-5.7,5.7h-7.3c-3.2,0-5.7-2.6-5.7-5.7V34
	C15.6,30.8,18.2,28.2,21.3,28.2z"/>
<path class="st0" d="M12,35c0-3.3-2.7-6-6-6s-6,2.7-6,6c0,3.3,2.6,5.9,5.9,6h0.3C9.4,40.9,12,38.3,12,35z"/>
<g class="st4">
	<path class="st5" d="M80.1,50.3c-0.4,0.3-0.8,0.5-1.2,0.5H56.5c0,2.4,0.5,4.5,1.4,6.3c1,1.9,2.3,3.3,4.1,4.4
		c1.8,1.1,3.9,1.6,6.3,1.6c1.9,0,3.6-0.4,5.1-1.2c1.5-0.8,2.7-1.8,3.6-3c0.4-0.4,0.8-0.5,1.2-0.5c0.4,0,0.7,0.2,1.1,0.5
		c0.3,0.3,0.5,0.7,0.5,1.1c0,0.4-0.2,0.8-0.6,1.2c-1.3,1.5-2.8,2.8-4.8,3.8c-1.9,1-3.9,1.5-6,1.5c-3,0-5.7-0.6-8-1.9
		c-2.3-1.3-4.1-3.1-5.4-5.5c-1.3-2.3-1.9-5-1.9-8.1c0-3.2,0.6-6,1.9-8.5c1.3-2.4,3-4.3,5.1-5.5c2.1-1.3,4.4-1.9,6.8-1.9
		c2.4,0,4.6,0.6,6.6,1.7c2.1,1.1,3.7,2.7,5,4.8c1.3,2.1,2,4.6,2,7.6C80.6,49.6,80.4,50,80.1,50.3z M60.6,40.8
		c-1.9,1.6-3.2,3.8-3.7,6.8h20.1v-0.5c-0.2-1.8-0.8-3.3-1.8-4.6c-1-1.3-2.2-2.3-3.7-3c-1.5-0.7-3-1-4.6-1
		C64.6,38.5,62.5,39.3,60.6,40.8z"/>
	<path class="st5" d="M109.9,50.3c-0.4,0.3-0.8,0.5-1.2,0.5H86.4c0,2.4,0.5,4.5,1.4,6.3c1,1.9,2.3,3.3,4.1,4.4
		c1.8,1.1,3.9,1.6,6.3,1.6c1.9,0,3.6-0.4,5.1-1.2s2.7-1.8,3.6-3c0.4-0.4,0.8-0.5,1.2-0.5s0.7,0.2,1.1,0.5c0.3,0.3,0.5,0.7,0.5,1.1
		c0,0.4-0.2,0.8-0.6,1.2c-1.3,1.5-2.8,2.8-4.8,3.8c-1.9,1-3.9,1.5-6,1.5c-3,0-5.7-0.6-8-1.9c-2.3-1.3-4.1-3.1-5.4-5.5
		c-1.3-2.3-1.9-5-1.9-8.1c0-3.2,0.6-6,1.9-8.5c1.3-2.4,3-4.3,5.1-5.5c2.1-1.3,4.4-1.9,6.8-1.9c2.4,0,4.6,0.6,6.6,1.7
		c2.1,1.1,3.7,2.7,5,4.8s2,4.6,2,7.6C110.4,49.6,110.3,50,109.9,50.3z M90.4,40.8c-1.9,1.6-3.2,3.8-3.7,6.8h20.1v-0.5
		c-0.2-1.8-0.8-3.3-1.8-4.6c-1-1.3-2.2-2.3-3.7-3c-1.5-0.7-3-1-4.6-1C94.5,38.5,92.4,39.3,90.4,40.8z"/>
	<path class="st5" d="M118.2,65.4c-0.3,0.3-0.8,0.5-1.3,0.5c-0.5,0-0.9-0.2-1.3-0.5c-0.3-0.3-0.5-0.8-0.5-1.3V24
		c0-0.5,0.2-0.9,0.5-1.3c0.3-0.3,0.8-0.5,1.3-0.5c0.5,0,0.9,0.2,1.3,0.5c0.3,0.3,0.5,0.8,0.5,1.3v40.1
		C118.7,64.7,118.5,65.1,118.2,65.4z"/>
	<path class="st5" d="M151.2,36.3c0.3,0.4,0.5,0.8,0.5,1.3v26.6c0,0.5-0.2,0.9-0.5,1.3c-0.3,0.3-0.8,0.5-1.3,0.5
		c-0.5,0-0.9-0.2-1.3-0.5c-0.3-0.3-0.5-0.8-0.5-1.3v-4c-1,1.8-2.5,3.3-4.4,4.5c-2,1.2-4.1,1.8-6.4,1.8c-2.6,0-5-0.7-7.1-2.1
		c-2.1-1.4-3.8-3.3-5-5.7c-1.2-2.4-1.8-5.1-1.8-8.1c0-3,0.6-5.7,1.8-8.1c1.2-2.4,2.9-4.2,5-5.6c2.1-1.3,4.4-2,7-2
		c2.4,0,4.5,0.6,6.5,1.7c2,1.1,3.4,2.6,4.4,4.5v-3.7c0-0.5,0.2-0.9,0.5-1.3c0.3-0.4,0.8-0.5,1.3-0.5
		C150.4,35.8,150.9,35.9,151.2,36.3z M143.2,61.6c1.6-1.1,2.9-2.6,3.8-4.5c0.9-1.9,1.4-4,1.4-6.4c0-2.3-0.5-4.4-1.4-6.3
		c-0.9-1.9-2.2-3.4-3.8-4.5c-1.6-1.1-3.5-1.6-5.5-1.6c-2,0-3.9,0.5-5.5,1.6c-1.6,1.1-2.9,2.5-3.8,4.4c-0.9,1.9-1.4,4-1.4,6.3
		s0.5,4.5,1.4,6.4c0.9,1.9,2.2,3.4,3.8,4.5c1.6,1.1,3.5,1.6,5.6,1.6C139.7,63.2,141.5,62.7,143.2,61.6z"/>
	<path class="st5" d="M180.3,38.3c1.7,2.1,2.6,5,2.6,8.5v17.3c0,0.5-0.2,0.9-0.5,1.3c-0.4,0.3-0.8,0.5-1.2,0.5
		c-0.5,0-0.9-0.2-1.3-0.5c-0.3-0.3-0.5-0.8-0.5-1.3V47c0-2.6-0.6-4.6-1.9-6.2c-1.3-1.6-3.3-2.4-5.9-2.4c-1.7,0-3.3,0.4-4.8,1.2
		c-1.5,0.8-2.7,1.8-3.7,3.2c-0.9,1.3-1.4,2.7-1.4,4.3v17.2c0,0.5-0.2,0.9-0.5,1.3c-0.3,0.3-0.8,0.5-1.3,0.5c-0.5,0-0.9-0.2-1.3-0.5
		c-0.3-0.3-0.5-0.8-0.5-1.3V37.7c0-0.5,0.2-0.9,0.5-1.3c0.3-0.3,0.8-0.5,1.3-0.5c0.5,0,0.9,0.2,1.3,0.5c0.3,0.3,0.5,0.8,0.5,1.3V41
		c1.1-1.7,2.6-3.1,4.6-4.2c2-1.1,4-1.7,6.1-1.7C175.9,35.1,178.6,36.1,180.3,38.3z"/>
</g>
</svg>
